<svg width="212" height="81" viewBox="0 0 212 81" fill="none" xmlns="http://www.w3.org/2000/svg">
<path d="M69.1 69.7C69.1 70.02 68.98 70.3 68.74 70.54C68.5 70.78 68.22 70.9 67.9 70.9C67.5533 70.9 67.26 70.78 67.02 70.54C66.8067 70.3 66.7 70.02 66.7 69.7V42.5C66.7 42.18 66.82 41.9 67.06 41.66C67.3 41.42 67.58 41.3 67.9 41.3C68.2467 41.3 68.5267 41.42 68.74 41.66C68.98 41.9 69.1 42.18 69.1 42.5V69.7ZM78.3188 69.7C78.3188 70.02 78.1988 70.3 77.9588 70.54C77.7188 70.78 77.4388 70.9 77.1188 70.9C76.7721 70.9 76.4788 70.78 76.2388 70.54C76.0254 70.3 75.9188 70.02 75.9188 69.7V42.5C75.9188 42.18 76.0388 41.9 76.2788 41.66C76.5188 41.42 76.7988 41.3 77.1188 41.3C77.4654 41.3 77.7454 41.42 77.9588 41.66C78.1988 41.9 78.3188 42.18 78.3188 42.5V69.7ZM85.2175 59.58C84.8975 59.58 84.6175 59.46 84.3775 59.22C84.1642 58.98 84.0575 58.6867 84.0575 58.34C84.0575 58.02 84.1642 57.7534 84.3775 57.54C84.6175 57.3 84.8975 57.18 85.2175 57.18H93.8575C94.1775 57.18 94.4575 57.3 94.6975 57.54C94.9375 57.78 95.0575 58.0734 95.0575 58.42C95.0575 58.74 94.9375 59.02 94.6975 59.26C94.4575 59.4734 94.1775 59.58 93.8575 59.58H85.2175ZM111.763 42.9C113.257 42.9 114.577 43.2467 115.723 43.94C116.87 44.6067 117.777 45.54 118.443 46.74C119.11 47.94 119.443 49.3134 119.443 50.86C119.443 52.4067 119.11 53.8067 118.443 55.06C117.777 56.2867 116.87 57.26 115.723 57.98C114.577 58.7 113.257 59.06 111.763 59.06H103.283L103.483 58.66V69.7C103.483 70.02 103.363 70.3 103.123 70.54C102.883 70.78 102.603 70.9 102.283 70.9C101.91 70.9 101.617 70.78 101.403 70.54C101.19 70.3 101.083 70.02 101.083 69.7V44.1C101.083 43.78 101.203 43.5 101.443 43.26C101.683 43.02 101.963 42.9 102.283 42.9H111.763ZM111.763 56.74C112.803 56.74 113.71 56.4867 114.483 55.98C115.257 55.4467 115.857 54.74 116.283 53.86C116.737 52.9534 116.963 51.9534 116.963 50.86C116.963 49.7667 116.737 48.8067 116.283 47.98C115.857 47.1267 115.257 46.46 114.483 45.98C113.71 45.5 112.803 45.26 111.763 45.26H103.283L103.483 44.9V56.98L103.243 56.74H111.763ZM140.876 50.46C141.223 50.46 141.503 50.58 141.716 50.82C141.956 51.06 142.076 51.3534 142.076 51.7V69.7C142.076 70.02 141.956 70.3 141.716 70.54C141.476 70.78 141.196 70.9 140.876 70.9C140.53 70.9 140.236 70.78 139.996 70.54C139.783 70.3 139.676 70.02 139.676 69.7V64.94L140.356 64.62C140.356 65.3667 140.143 66.1267 139.716 66.9C139.316 67.6734 138.756 68.3934 138.036 69.06C137.316 69.7267 136.463 70.2734 135.476 70.7C134.516 71.1 133.476 71.3 132.356 71.3C130.543 71.3 128.916 70.8334 127.476 69.9C126.063 68.9667 124.943 67.6867 124.116 66.06C123.316 64.4334 122.916 62.6067 122.916 60.58C122.916 58.5 123.33 56.6734 124.156 55.1C124.983 53.5 126.103 52.2467 127.516 51.34C128.93 50.4334 130.53 49.98 132.316 49.98C133.463 49.98 134.53 50.18 135.516 50.58C136.53 50.98 137.41 51.5267 138.156 52.22C138.903 52.9134 139.476 53.7134 139.876 54.62C140.303 55.5 140.516 56.42 140.516 57.38L139.676 56.78V51.7C139.676 51.3534 139.783 51.06 139.996 50.82C140.236 50.58 140.53 50.46 140.876 50.46ZM132.556 69.06C133.97 69.06 135.223 68.7 136.316 67.98C137.41 67.2334 138.263 66.22 138.876 64.94C139.516 63.6334 139.836 62.18 139.836 60.58C139.836 59.0067 139.516 57.5934 138.876 56.34C138.263 55.0867 137.41 54.0867 136.316 53.34C135.223 52.5934 133.97 52.22 132.556 52.22C131.17 52.22 129.916 52.58 128.796 53.3C127.703 54.02 126.836 55.0067 126.196 56.26C125.583 57.5134 125.276 58.9534 125.276 60.58C125.276 62.18 125.583 63.6334 126.196 64.94C126.836 66.22 127.703 67.2334 128.796 67.98C129.89 68.7 131.143 69.06 132.556 69.06ZM156.894 49.98C158.094 49.98 159.201 50.1934 160.214 50.62C161.227 51.02 162.107 51.5534 162.854 52.22C163.627 52.86 164.227 53.5534 164.654 54.3C165.081 55.02 165.294 55.7134 165.294 56.38L164.614 55.42V51.7C164.614 51.3534 164.721 51.06 164.934 50.82C165.174 50.58 165.467 50.46 165.814 50.46C166.187 50.46 166.481 50.58 166.694 50.82C166.907 51.06 167.014 51.3534 167.014 51.7V69.02C167.014 71.1534 166.574 72.9534 165.694 74.42C164.814 75.8867 163.614 76.9934 162.094 77.74C160.601 78.5134 158.894 78.9 156.974 78.9C156.041 78.9 155.054 78.78 154.014 78.54C153.001 78.3 152.121 77.9934 151.374 77.62C150.654 77.2467 150.254 76.86 150.174 76.46C149.961 76.22 149.854 75.98 149.854 75.74C149.881 75.5267 150.001 75.34 150.214 75.18C150.481 74.9934 150.761 74.9667 151.054 75.1C151.347 75.26 151.787 75.46 152.374 75.7C152.641 75.78 153.001 75.9 153.454 76.06C153.907 76.22 154.441 76.3534 155.054 76.46C155.694 76.5934 156.361 76.66 157.054 76.66C159.454 76.66 161.307 75.9667 162.614 74.58C163.947 73.22 164.614 71.42 164.614 69.18V65.34L165.054 65.46C164.814 66.42 164.414 67.26 163.854 67.98C163.321 68.7 162.681 69.3134 161.934 69.82C161.187 70.3 160.374 70.66 159.494 70.9C158.641 71.1667 157.787 71.3 156.934 71.3C155.094 71.3 153.441 70.8334 151.974 69.9C150.507 68.9667 149.334 67.7 148.454 66.1C147.601 64.5 147.174 62.6734 147.174 60.62C147.174 58.5934 147.601 56.78 148.454 55.18C149.334 53.5534 150.494 52.2867 151.934 51.38C153.401 50.4467 155.054 49.98 156.894 49.98ZM157.174 52.22C155.707 52.22 154.387 52.5934 153.214 53.34C152.067 54.06 151.161 55.06 150.494 56.34C149.854 57.5934 149.534 59.02 149.534 60.62C149.534 62.22 149.854 63.66 150.494 64.94C151.161 66.22 152.067 67.2334 153.214 67.98C154.387 68.7 155.707 69.06 157.174 69.06C158.641 69.06 159.947 68.7 161.094 67.98C162.241 67.26 163.147 66.2734 163.814 65.02C164.481 63.74 164.814 62.2734 164.814 60.62C164.814 58.9667 164.481 57.5134 163.814 56.26C163.147 54.98 162.241 53.9934 161.094 53.3C159.947 52.58 158.641 52.22 157.174 52.22ZM181.794 71.3C179.74 71.3 177.927 70.86 176.354 69.98C174.78 69.1 173.554 67.8734 172.674 66.3C171.794 64.7267 171.354 62.8867 171.354 60.78C171.354 58.5134 171.794 56.58 172.674 54.98C173.58 53.38 174.74 52.1534 176.154 51.3C177.594 50.42 179.114 49.98 180.714 49.98C181.887 49.98 183.02 50.1934 184.114 50.62C185.234 51.02 186.22 51.6334 187.074 52.46C187.954 53.26 188.647 54.2467 189.154 55.42C189.687 56.5934 189.98 57.9534 190.034 59.5C190.007 59.82 189.874 60.1 189.634 60.34C189.394 60.5534 189.114 60.66 188.794 60.66H172.754L172.274 58.5H188.034L187.514 58.98V58.18C187.407 56.9267 187.007 55.86 186.314 54.98C185.62 54.1 184.78 53.4334 183.794 52.98C182.807 52.5267 181.78 52.3 180.714 52.3C179.914 52.3 179.087 52.46 178.234 52.78C177.407 53.1 176.647 53.6067 175.954 54.3C175.287 54.9667 174.74 55.8334 174.314 56.9C173.887 57.94 173.674 59.18 173.674 60.62C173.674 62.1934 173.994 63.62 174.634 64.9C175.274 66.18 176.194 67.1934 177.394 67.94C178.62 68.6867 180.074 69.06 181.754 69.06C182.687 69.06 183.527 68.9267 184.274 68.66C185.02 68.3934 185.674 68.0467 186.234 67.62C186.794 67.1667 187.26 66.7 187.634 66.22C187.927 65.98 188.22 65.86 188.514 65.86C188.78 65.86 189.007 65.9667 189.194 66.18C189.407 66.3934 189.514 66.6334 189.514 66.9C189.514 67.22 189.38 67.5 189.114 67.74C188.314 68.7 187.274 69.54 185.994 70.26C184.714 70.9534 183.314 71.3 181.794 71.3ZM194.011 67.66C193.798 67.34 193.691 67.0334 193.691 66.74C193.718 66.42 193.891 66.1667 194.211 65.98C194.424 65.7934 194.664 65.7134 194.931 65.74C195.224 65.7667 195.491 65.9 195.731 66.14C196.451 67.0734 197.318 67.8334 198.331 68.42C199.371 68.98 200.598 69.26 202.011 69.26C202.758 69.26 203.491 69.14 204.211 68.9C204.958 68.6334 205.571 68.2467 206.051 67.74C206.531 67.2067 206.771 66.54 206.771 65.74C206.771 64.9134 206.531 64.2467 206.051 63.74C205.571 63.2334 204.944 62.8334 204.171 62.54C203.424 62.2467 202.624 61.9934 201.771 61.78C200.864 61.54 199.984 61.2734 199.131 60.98C198.278 60.66 197.518 60.2734 196.851 59.82C196.211 59.34 195.691 58.7667 195.291 58.1C194.891 57.4334 194.691 56.62 194.691 55.66C194.691 54.54 194.998 53.5534 195.611 52.7C196.224 51.8467 197.051 51.18 198.091 50.7C199.158 50.22 200.358 49.98 201.691 49.98C202.358 49.98 203.078 50.0734 203.851 50.26C204.624 50.42 205.384 50.7 206.131 51.1C206.878 51.5 207.544 52.0467 208.131 52.74C208.371 52.98 208.491 53.26 208.491 53.58C208.491 53.8734 208.358 54.14 208.091 54.38C207.878 54.54 207.624 54.62 207.331 54.62C207.064 54.62 206.838 54.5134 206.651 54.3C206.011 53.58 205.251 53.0334 204.371 52.66C203.491 52.2867 202.544 52.1 201.531 52.1C200.758 52.1 200.024 52.2334 199.331 52.5C198.664 52.74 198.104 53.1134 197.651 53.62C197.198 54.1267 196.971 54.7934 196.971 55.62C197.024 56.3934 197.291 57.02 197.771 57.5C198.278 57.98 198.931 58.38 199.731 58.7C200.558 59.02 201.478 59.3134 202.491 59.58C203.344 59.7934 204.158 60.0467 204.931 60.34C205.731 60.6334 206.424 61.0067 207.011 61.46C207.624 61.8867 208.104 62.4334 208.451 63.1C208.824 63.7667 209.011 64.6067 209.011 65.62C209.011 66.7934 208.678 67.8067 208.011 68.66C207.371 69.5134 206.504 70.1667 205.411 70.62C204.318 71.0734 203.104 71.3 201.771 71.3C200.331 71.3 198.931 71.02 197.571 70.46C196.238 69.9 195.051 68.9667 194.011 67.66Z" fill="white"/>
<path d="M74.07 30.65C74.07 31.44 73.945 32.165 73.695 32.825C73.455 33.475 73.11 34.045 72.66 34.535C72.21 35.015 71.675 35.39 71.055 35.66C70.445 35.92 69.775 36.05 69.045 36.05C68.315 36.05 67.64 35.92 67.02 35.66C66.41 35.39 65.88 35.015 65.43 34.535C64.98 34.045 64.63 33.475 64.38 32.825C64.14 32.165 64.02 31.44 64.02 30.65C64.02 29.86 64.14 29.14 64.38 28.49C64.63 27.83 64.98 27.26 65.43 26.78C65.88 26.29 66.41 25.915 67.02 25.655C67.64 25.385 68.315 25.25 69.045 25.25C69.775 25.25 70.445 25.385 71.055 25.655C71.675 25.915 72.21 26.29 72.66 26.78C73.11 27.26 73.455 27.83 73.695 28.49C73.945 29.14 74.07 29.86 74.07 30.65ZM73.11 30.65C73.11 29.76 72.935 28.98 72.585 28.31C72.245 27.63 71.77 27.1 71.16 26.72C70.55 26.34 69.845 26.15 69.045 26.15C68.255 26.15 67.55 26.34 66.93 26.72C66.32 27.1 65.84 27.63 65.49 28.31C65.15 28.98 64.98 29.76 64.98 30.65C64.98 31.54 65.15 32.325 65.49 33.005C65.84 33.675 66.32 34.2 66.93 34.58C67.55 34.96 68.255 35.15 69.045 35.15C69.845 35.15 70.55 34.96 71.16 34.58C71.77 34.2 72.245 33.675 72.585 33.005C72.935 32.325 73.11 31.54 73.11 30.65ZM81.5859 28.055C82.2459 28.055 82.7709 28.19 83.1609 28.46C83.5609 28.72 83.8459 29.08 84.0159 29.54C84.1959 29.99 84.2859 30.49 84.2859 31.04V35.45C84.2859 35.57 84.2409 35.675 84.1509 35.765C84.0609 35.855 83.9559 35.9 83.8359 35.9C83.6959 35.9 83.5859 35.855 83.5059 35.765C83.4259 35.675 83.3859 35.57 83.3859 35.45V31.085C83.3859 30.685 83.3209 30.32 83.1909 29.99C83.0609 29.66 82.8459 29.395 82.5459 29.195C82.2559 28.995 81.8709 28.895 81.3909 28.895C80.9609 28.895 80.5509 28.995 80.1609 29.195C79.7809 29.395 79.4709 29.66 79.2309 29.99C78.9909 30.32 78.8709 30.685 78.8709 31.085V35.45C78.8709 35.57 78.8259 35.675 78.7359 35.765C78.6459 35.855 78.5409 35.9 78.4209 35.9C78.2809 35.9 78.1709 35.855 78.0909 35.765C78.0109 35.675 77.9709 35.57 77.9709 35.45V28.73C77.9709 28.61 78.0109 28.505 78.0909 28.415C78.1809 28.325 78.2909 28.28 78.4209 28.28C78.5509 28.28 78.6559 28.325 78.7359 28.415C78.8259 28.505 78.8709 28.61 78.8709 28.73V29.99L78.5259 30.53C78.5459 30.21 78.6459 29.905 78.8259 29.615C79.0159 29.315 79.2559 29.05 79.5459 28.82C79.8359 28.58 80.1559 28.395 80.5059 28.265C80.8659 28.125 81.2259 28.055 81.5859 28.055ZM89.6344 35.45C89.6344 35.57 89.5894 35.675 89.4994 35.765C89.4094 35.855 89.3044 35.9 89.1844 35.9C89.0544 35.9 88.9444 35.855 88.8544 35.765C88.7744 35.675 88.7344 35.57 88.7344 35.45V25.25C88.7344 25.13 88.7794 25.025 88.8694 24.935C88.9594 24.845 89.0644 24.8 89.1844 24.8C89.3144 24.8 89.4194 24.845 89.4994 24.935C89.5894 25.025 89.6344 25.13 89.6344 25.25V35.45ZM94.973 35.45C94.973 35.57 94.928 35.675 94.838 35.765C94.748 35.855 94.643 35.9 94.523 35.9C94.393 35.9 94.283 35.855 94.193 35.765C94.113 35.675 94.073 35.57 94.073 35.45V28.55C94.073 28.43 94.113 28.325 94.193 28.235C94.283 28.145 94.393 28.1 94.523 28.1C94.653 28.1 94.758 28.145 94.838 28.235C94.928 28.325 94.973 28.43 94.973 28.55V35.45ZM94.523 27.095C94.313 27.095 94.153 27.05 94.043 26.96C93.943 26.86 93.893 26.72 93.893 26.54V26.39C93.893 26.21 93.948 26.075 94.058 25.985C94.178 25.885 94.338 25.835 94.538 25.835C94.728 25.835 94.873 25.885 94.973 25.985C95.083 26.075 95.138 26.21 95.138 26.39V26.54C95.138 26.72 95.083 26.86 94.973 26.96C94.873 27.05 94.723 27.095 94.523 27.095ZM102.928 28.055C103.588 28.055 104.113 28.19 104.503 28.46C104.903 28.72 105.188 29.08 105.358 29.54C105.538 29.99 105.628 30.49 105.628 31.04V35.45C105.628 35.57 105.583 35.675 105.493 35.765C105.403 35.855 105.298 35.9 105.178 35.9C105.038 35.9 104.928 35.855 104.848 35.765C104.768 35.675 104.728 35.57 104.728 35.45V31.085C104.728 30.685 104.663 30.32 104.533 29.99C104.403 29.66 104.188 29.395 103.888 29.195C103.598 28.995 103.213 28.895 102.733 28.895C102.303 28.895 101.893 28.995 101.503 29.195C101.123 29.395 100.813 29.66 100.573 29.99C100.333 30.32 100.213 30.685 100.213 31.085V35.45C100.213 35.57 100.168 35.675 100.078 35.765C99.9875 35.855 99.8825 35.9 99.7625 35.9C99.6225 35.9 99.5125 35.855 99.4325 35.765C99.3525 35.675 99.3125 35.57 99.3125 35.45V28.73C99.3125 28.61 99.3525 28.505 99.4325 28.415C99.5225 28.325 99.6325 28.28 99.7625 28.28C99.8925 28.28 99.9975 28.325 100.078 28.415C100.168 28.505 100.213 28.61 100.213 28.73V29.99L99.8675 30.53C99.8875 30.21 99.9875 29.905 100.168 29.615C100.358 29.315 100.598 29.05 100.888 28.82C101.178 28.58 101.498 28.395 101.848 28.265C102.208 28.125 102.568 28.055 102.928 28.055ZM113.451 36.05C112.681 36.05 112.001 35.885 111.411 35.555C110.821 35.225 110.361 34.765 110.031 34.175C109.701 33.585 109.536 32.895 109.536 32.105C109.536 31.255 109.701 30.53 110.031 29.93C110.371 29.33 110.806 28.87 111.336 28.55C111.876 28.22 112.446 28.055 113.046 28.055C113.486 28.055 113.911 28.135 114.321 28.295C114.741 28.445 115.111 28.675 115.431 28.985C115.761 29.285 116.021 29.655 116.211 30.095C116.411 30.535 116.521 31.045 116.541 31.625C116.531 31.745 116.481 31.85 116.391 31.94C116.301 32.02 116.196 32.06 116.076 32.06H110.061L109.881 31.25H115.791L115.596 31.43V31.13C115.556 30.66 115.406 30.26 115.146 29.93C114.886 29.6 114.571 29.35 114.201 29.18C113.831 29.01 113.446 28.925 113.046 28.925C112.746 28.925 112.436 28.985 112.116 29.105C111.806 29.225 111.521 29.415 111.261 29.675C111.011 29.925 110.806 30.25 110.646 30.65C110.486 31.04 110.406 31.505 110.406 32.045C110.406 32.635 110.526 33.17 110.766 33.65C111.006 34.13 111.351 34.51 111.801 34.79C112.261 35.07 112.806 35.21 113.436 35.21C113.786 35.21 114.101 35.16 114.381 35.06C114.661 34.96 114.906 34.83 115.116 34.67C115.326 34.5 115.501 34.325 115.641 34.145C115.751 34.055 115.861 34.01 115.971 34.01C116.071 34.01 116.156 34.05 116.226 34.13C116.306 34.21 116.346 34.3 116.346 34.4C116.346 34.52 116.296 34.625 116.196 34.715C115.896 35.075 115.506 35.39 115.026 35.66C114.546 35.92 114.021 36.05 113.451 36.05ZM127.166 28.055C127.846 28.055 128.446 28.225 128.966 28.565C129.496 28.905 129.916 29.375 130.226 29.975C130.536 30.565 130.691 31.25 130.691 32.03C130.691 32.79 130.536 33.475 130.226 34.085C129.916 34.695 129.496 35.175 128.966 35.525C128.436 35.875 127.841 36.05 127.181 36.05C126.831 36.05 126.496 35.995 126.176 35.885C125.866 35.775 125.581 35.63 125.321 35.45C125.061 35.26 124.831 35.04 124.631 34.79C124.431 34.54 124.271 34.27 124.151 33.98L124.421 33.785V35.48C124.421 35.61 124.376 35.72 124.286 35.81C124.206 35.89 124.101 35.93 123.971 35.93C123.841 35.93 123.731 35.89 123.641 35.81C123.561 35.72 123.521 35.61 123.521 35.48V25.265C123.521 25.135 123.561 25.03 123.641 24.95C123.721 24.86 123.831 24.815 123.971 24.815C124.101 24.815 124.206 24.86 124.286 24.95C124.376 25.03 124.421 25.135 124.421 25.265V30.29L124.211 30.17C124.311 29.86 124.456 29.58 124.646 29.33C124.846 29.07 125.076 28.845 125.336 28.655C125.596 28.465 125.881 28.32 126.191 28.22C126.501 28.11 126.826 28.055 127.166 28.055ZM127.091 28.895C126.551 28.895 126.076 29.03 125.666 29.3C125.256 29.57 124.931 29.94 124.691 30.41C124.461 30.88 124.346 31.42 124.346 32.03C124.346 32.63 124.461 33.175 124.691 33.665C124.931 34.145 125.256 34.525 125.666 34.805C126.076 35.075 126.551 35.21 127.091 35.21C127.621 35.21 128.086 35.07 128.486 34.79C128.896 34.51 129.221 34.13 129.461 33.65C129.701 33.16 129.821 32.62 129.821 32.03C129.821 31.42 129.701 30.88 129.461 30.41C129.221 29.94 128.896 29.57 128.486 29.3C128.086 29.03 127.621 28.895 127.091 28.895ZM141.759 32.06C141.759 32.82 141.594 33.505 141.264 34.115C140.934 34.715 140.484 35.19 139.914 35.54C139.344 35.88 138.694 36.05 137.964 36.05C137.254 36.05 136.609 35.88 136.029 35.54C135.459 35.19 135.004 34.715 134.664 34.115C134.334 33.505 134.169 32.82 134.169 32.06C134.169 31.29 134.334 30.605 134.664 30.005C135.004 29.405 135.459 28.93 136.029 28.58C136.609 28.23 137.254 28.055 137.964 28.055C138.694 28.055 139.344 28.23 139.914 28.58C140.484 28.93 140.934 29.405 141.264 30.005C141.594 30.605 141.759 31.29 141.759 32.06ZM140.859 32.06C140.859 31.45 140.734 30.91 140.484 30.44C140.234 29.96 139.889 29.585 139.449 29.315C139.019 29.035 138.524 28.895 137.964 28.895C137.424 28.895 136.934 29.035 136.494 29.315C136.054 29.585 135.704 29.96 135.444 30.44C135.194 30.91 135.069 31.45 135.069 32.06C135.069 32.67 135.194 33.21 135.444 33.68C135.704 34.15 136.054 34.525 136.494 34.805C136.934 35.075 137.424 35.21 137.964 35.21C138.524 35.21 139.019 35.075 139.449 34.805C139.889 34.525 140.234 34.15 140.484 33.68C140.734 33.21 140.859 32.67 140.859 32.06ZM152.813 32.06C152.813 32.82 152.648 33.505 152.318 34.115C151.988 34.715 151.538 35.19 150.968 35.54C150.398 35.88 149.748 36.05 149.018 36.05C148.308 36.05 147.663 35.88 147.083 35.54C146.513 35.19 146.058 34.715 145.718 34.115C145.388 33.505 145.223 32.82 145.223 32.06C145.223 31.29 145.388 30.605 145.718 30.005C146.058 29.405 146.513 28.93 147.083 28.58C147.663 28.23 148.308 28.055 149.018 28.055C149.748 28.055 150.398 28.23 150.968 28.58C151.538 28.93 151.988 29.405 152.318 30.005C152.648 30.605 152.813 31.29 152.813 32.06ZM151.913 32.06C151.913 31.45 151.788 30.91 151.538 30.44C151.288 29.96 150.943 29.585 150.503 29.315C150.073 29.035 149.578 28.895 149.018 28.895C148.478 28.895 147.988 29.035 147.548 29.315C147.108 29.585 146.758 29.96 146.498 30.44C146.248 30.91 146.123 31.45 146.123 32.06C146.123 32.67 146.248 33.21 146.498 33.68C146.758 34.15 147.108 34.525 147.548 34.805C147.988 35.075 148.478 35.21 149.018 35.21C149.578 35.21 150.073 35.075 150.503 34.805C150.943 34.525 151.288 34.15 151.538 33.68C151.788 33.21 151.913 32.67 151.913 32.06ZM157.267 35.9C157.137 35.9 157.027 35.855 156.937 35.765C156.857 35.675 156.817 35.57 156.817 35.45V25.25C156.817 25.13 156.857 25.025 156.937 24.935C157.027 24.845 157.137 24.8 157.267 24.8C157.397 24.8 157.502 24.845 157.582 24.935C157.672 25.025 157.717 25.13 157.717 25.25V35.45C157.717 35.57 157.672 35.675 157.582 35.765C157.502 35.855 157.397 35.9 157.267 35.9ZM162.367 28.205C162.477 28.205 162.577 28.255 162.667 28.355C162.757 28.445 162.802 28.545 162.802 28.655C162.802 28.785 162.747 28.9 162.637 29L157.597 33.29L157.552 32.225L162.052 28.355C162.142 28.255 162.247 28.205 162.367 28.205ZM162.487 35.9C162.357 35.9 162.247 35.845 162.157 35.735L158.737 32.105L159.412 31.49L162.802 35.105C162.892 35.205 162.937 35.32 162.937 35.45C162.937 35.59 162.882 35.7 162.772 35.78C162.662 35.86 162.567 35.9 162.487 35.9ZM169.373 34.685C169.293 34.565 169.253 34.45 169.253 34.34C169.263 34.22 169.328 34.125 169.448 34.055C169.528 33.985 169.618 33.955 169.718 33.965C169.828 33.975 169.928 34.025 170.018 34.115C170.288 34.465 170.613 34.75 170.993 34.97C171.383 35.18 171.843 35.285 172.373 35.285C172.653 35.285 172.928 35.24 173.198 35.15C173.478 35.05 173.708 34.905 173.888 34.715C174.068 34.515 174.158 34.265 174.158 33.965C174.158 33.655 174.068 33.405 173.888 33.215C173.708 33.025 173.473 32.875 173.183 32.765C172.903 32.655 172.603 32.56 172.283 32.48C171.943 32.39 171.613 32.29 171.293 32.18C170.973 32.06 170.688 31.915 170.438 31.745C170.198 31.565 170.003 31.35 169.853 31.1C169.703 30.85 169.628 30.545 169.628 30.185C169.628 29.765 169.743 29.395 169.973 29.075C170.203 28.755 170.513 28.505 170.903 28.325C171.303 28.145 171.753 28.055 172.253 28.055C172.503 28.055 172.773 28.09 173.063 28.16C173.353 28.22 173.638 28.325 173.918 28.475C174.198 28.625 174.448 28.83 174.668 29.09C174.758 29.18 174.803 29.285 174.803 29.405C174.803 29.515 174.753 29.615 174.653 29.705C174.573 29.765 174.478 29.795 174.368 29.795C174.268 29.795 174.183 29.755 174.113 29.675C173.873 29.405 173.588 29.2 173.258 29.06C172.928 28.92 172.573 28.85 172.193 28.85C171.903 28.85 171.628 28.9 171.368 29C171.118 29.09 170.908 29.23 170.738 29.42C170.568 29.61 170.483 29.86 170.483 30.17C170.503 30.46 170.603 30.695 170.783 30.875C170.973 31.055 171.218 31.205 171.518 31.325C171.828 31.445 172.173 31.555 172.553 31.655C172.873 31.735 173.178 31.83 173.468 31.94C173.768 32.05 174.028 32.19 174.248 32.36C174.478 32.52 174.658 32.725 174.788 32.975C174.928 33.225 174.998 33.54 174.998 33.92C174.998 34.36 174.873 34.74 174.623 35.06C174.383 35.38 174.058 35.625 173.648 35.795C173.238 35.965 172.783 36.05 172.283 36.05C171.743 36.05 171.218 35.945 170.708 35.735C170.208 35.525 169.763 35.175 169.373 34.685ZM182.336 28.175C182.966 28.175 183.476 28.31 183.866 28.58C184.256 28.85 184.541 29.215 184.721 29.675C184.911 30.135 185.006 30.645 185.006 31.205V35.45C185.006 35.57 184.961 35.675 184.871 35.765C184.781 35.855 184.676 35.9 184.556 35.9C184.416 35.9 184.306 35.855 184.226 35.765C184.146 35.675 184.106 35.57 184.106 35.45V31.205C184.106 30.795 184.041 30.425 183.911 30.095C183.791 29.765 183.591 29.505 183.311 29.315C183.031 29.115 182.656 29.015 182.186 29.015C181.766 29.015 181.366 29.115 180.986 29.315C180.616 29.505 180.316 29.765 180.086 30.095C179.856 30.425 179.741 30.795 179.741 31.205V35.45C179.741 35.57 179.696 35.675 179.606 35.765C179.516 35.855 179.411 35.9 179.291 35.9C179.151 35.9 179.041 35.855 178.961 35.765C178.881 35.675 178.841 35.57 178.841 35.45V25.25C178.841 25.13 178.881 25.025 178.961 24.935C179.051 24.845 179.161 24.8 179.291 24.8C179.421 24.8 179.526 24.845 179.606 24.935C179.696 25.025 179.741 25.13 179.741 25.25V30.11L179.396 30.635C179.416 30.325 179.511 30.025 179.681 29.735C179.861 29.435 180.091 29.17 180.371 28.94C180.651 28.7 180.961 28.515 181.301 28.385C181.641 28.245 181.986 28.175 182.336 28.175ZM196.508 32.06C196.508 32.82 196.343 33.505 196.013 34.115C195.683 34.715 195.233 35.19 194.663 35.54C194.093 35.88 193.443 36.05 192.713 36.05C192.003 36.05 191.358 35.88 190.778 35.54C190.208 35.19 189.753 34.715 189.413 34.115C189.083 33.505 188.918 32.82 188.918 32.06C188.918 31.29 189.083 30.605 189.413 30.005C189.753 29.405 190.208 28.93 190.778 28.58C191.358 28.23 192.003 28.055 192.713 28.055C193.443 28.055 194.093 28.23 194.663 28.58C195.233 28.93 195.683 29.405 196.013 30.005C196.343 30.605 196.508 31.29 196.508 32.06ZM195.608 32.06C195.608 31.45 195.483 30.91 195.233 30.44C194.983 29.96 194.638 29.585 194.198 29.315C193.768 29.035 193.273 28.895 192.713 28.895C192.173 28.895 191.683 29.035 191.243 29.315C190.803 29.585 190.453 29.96 190.193 30.44C189.943 30.91 189.818 31.45 189.818 32.06C189.818 32.67 189.943 33.21 190.193 33.68C190.453 34.15 190.803 34.525 191.243 34.805C191.683 35.075 192.173 35.21 192.713 35.21C193.273 35.21 193.768 35.075 194.198 34.805C194.638 34.525 194.983 34.15 195.233 33.68C195.483 33.21 195.608 32.67 195.608 32.06ZM204.067 28.175C204.747 28.175 205.347 28.345 205.867 28.685C206.397 29.015 206.817 29.475 207.127 30.065C207.437 30.645 207.592 31.315 207.592 32.075C207.592 32.835 207.437 33.51 207.127 34.1C206.817 34.69 206.397 35.155 205.867 35.495C205.337 35.835 204.742 36.005 204.082 36.005C203.732 36.005 203.397 35.955 203.077 35.855C202.767 35.745 202.482 35.6 202.222 35.42C201.962 35.24 201.732 35.03 201.532 34.79C201.332 34.54 201.172 34.27 201.052 33.98L201.322 33.785V38.45C201.322 38.57 201.277 38.675 201.187 38.765C201.107 38.855 201.002 38.9 200.872 38.9C200.742 38.9 200.632 38.855 200.542 38.765C200.462 38.675 200.422 38.57 200.422 38.45V28.67C200.422 28.54 200.462 28.43 200.542 28.34C200.622 28.25 200.732 28.205 200.872 28.205C201.002 28.205 201.107 28.25 201.187 28.34C201.277 28.43 201.322 28.54 201.322 28.67V30.29L201.112 30.17C201.212 29.86 201.357 29.585 201.547 29.345C201.747 29.095 201.977 28.885 202.237 28.715C202.497 28.535 202.782 28.4 203.092 28.31C203.402 28.22 203.727 28.175 204.067 28.175ZM203.992 29.015C203.452 29.015 202.977 29.15 202.567 29.42C202.157 29.68 201.832 30.04 201.592 30.5C201.362 30.95 201.247 31.475 201.247 32.075C201.247 32.665 201.362 33.195 201.592 33.665C201.832 34.135 202.157 34.505 202.567 34.775C202.977 35.035 203.452 35.165 203.992 35.165C204.522 35.165 204.987 35.035 205.387 34.775C205.797 34.505 206.122 34.135 206.362 33.665C206.602 33.195 206.722 32.665 206.722 32.075C206.722 31.485 206.602 30.96 206.362 30.5C206.122 30.04 205.797 29.68 205.387 29.42C204.987 29.15 204.522 29.015 203.992 29.015Z" fill="white"/>
<path d="M23.1 40.8L31.9 16.1L40.5 40.8L44.4 50.3L52.8 70.9H63.6L35.5 0H28.1L0 70.9H10.9C13.1 65.1 16.6 56.7 19.3 50.3L23.1 40.8Z" fill="white"/>
<path d="M41.8 50.3L37.8 40.8L31.8 43.4L25.8 40.8L21.8 50.3L31.8 52.9L41.8 50.3Z" fill="white"/>
</svg>
