<svg width="25" height="25" viewBox="0 0 25 25" fill="none" xmlns="http://www.w3.org/2000/svg">
<path d="M2.9031 2.375C3.00159 2.34592 3.10485 2.33654 3.20697 2.3474C3.30909 2.35826 3.40806 2.38915 3.49823 2.4383C3.5884 2.48745 3.66799 2.55389 3.73246 2.63383C3.79693 2.71377 3.845 2.80563 3.87394 2.90416L4.44685 4.84375H19.7125C21.6291 4.84375 23.0927 6.63229 22.5406 8.49999L20.8166 14.3333C20.45 15.5771 19.2844 16.4062 17.9885 16.4062H8.45102C7.15519 16.4062 5.9906 15.5771 5.62289 14.3333L2.37602 3.34687C2.31721 3.14823 2.33969 2.93437 2.43854 2.75231C2.53738 2.57026 2.70448 2.43387 2.9031 2.375ZM6.51039 20.3125C6.51039 19.6909 6.75732 19.0948 7.19686 18.6552C7.6364 18.2157 8.23254 17.9687 8.85414 17.9687C9.47574 17.9687 10.0719 18.2157 10.5114 18.6552C10.951 19.0948 11.1979 19.6909 11.1979 20.3125C11.1979 20.9341 10.951 21.5302 10.5114 21.9698C10.0719 22.4093 9.47574 22.6562 8.85414 22.6562C8.23254 22.6562 7.6364 22.4093 7.19686 21.9698C6.75732 21.5302 6.51039 20.9341 6.51039 20.3125ZM14.8437 20.3125C14.8437 20.0047 14.9043 19.6999 15.0221 19.4156C15.1399 19.1312 15.3126 18.8729 15.5302 18.6552C15.7478 18.4376 16.0062 18.2649 16.2906 18.1472C16.5749 18.0294 16.8797 17.9687 17.1875 17.9687C17.4953 17.9687 17.8 18.0294 18.0844 18.1472C18.3687 18.2649 18.6271 18.4376 18.8448 18.6552C19.0624 18.8729 19.235 19.1312 19.3528 19.4156C19.4706 19.6999 19.5312 20.0047 19.5312 20.3125C19.5312 20.9341 19.2843 21.5302 18.8448 21.9698C18.4052 22.4093 17.8091 22.6562 17.1875 22.6562C16.5659 22.6562 15.9697 22.4093 15.5302 21.9698C15.0907 21.5302 14.8437 20.9341 14.8437 20.3125Z" fill="white"/>
</svg>
