<svg width="24" height="24" viewBox="0 0 24 24" fill="none" xmlns="http://www.w3.org/2000/svg">
<g clip-path="url(#clip0_66_12)">
<path fill-rule="evenodd" clip-rule="evenodd" d="M2.0555 23C1.9165 22.9996 1.77893 22.9718 1.65066 22.9183C1.52239 22.8647 1.40592 22.7864 1.30791 22.6879C1.2099 22.5893 1.13226 22.4724 1.07943 22.3438C1.0266 22.2152 0.99961 22.0775 1 21.9385V2.0615C1 1.475 1.4725 1 2.0555 1H21.945C22.5275 1 23 1.475 23 2.0615V21.9385C23.0004 22.0775 22.9734 22.2152 22.9206 22.3438C22.8677 22.4724 22.7901 22.5893 22.6921 22.6879C22.5941 22.7864 22.4776 22.8647 22.3493 22.9183C22.2211 22.9718 22.0835 22.9996 21.9445 23H2.0555Z" stroke="white" stroke-width="2" stroke-linecap="round" stroke-linejoin="round"/>
<path fill-rule="evenodd" clip-rule="evenodd" d="M19.331 8.94353H16.8965C16.5724 8.94366 16.2617 9.07245 16.0326 9.30159C15.8034 9.53073 15.6746 9.84147 15.6745 10.1655V12.6105H19.331L18.7955 16.2765H15.6745V23H11.6535V16.2765H8.3335V12.611H11.6105L11.6535 9.13153L11.6415 7.88453C11.6375 7.46329 11.7169 7.04543 11.8753 6.65509C12.0337 6.26475 12.2679 5.90966 12.5644 5.61035C12.8608 5.31104 13.2136 5.07344 13.6024 4.91127C13.9912 4.7491 14.4082 4.66557 14.8295 4.66553H19.331V8.94353Z" fill="white"/>
</g>
<defs>
<clipPath id="clip0_66_12">
<rect width="24" height="24" fill="white"/>
</clipPath>
</defs>
</svg>
