<svg width="24" height="24" viewBox="0 0 24 24" fill="none" xmlns="http://www.w3.org/2000/svg">
<g clip-path="url(#clip0_66_5)">
<path d="M17.7137 6.24679C17.6001 6.24679 17.4911 6.20164 17.4107 6.12127C17.3303 6.04089 17.2852 5.93188 17.2852 5.81822C17.2852 5.70456 17.3303 5.59555 17.4107 5.51517C17.4911 5.4348 17.6001 5.38965 17.7137 5.38965M17.7137 6.24679C17.8274 6.24679 17.9364 6.20164 18.0168 6.12127C18.0971 6.04089 18.1423 5.93188 18.1423 5.81822C18.1423 5.70456 18.0971 5.59555 18.0168 5.51517C17.9364 5.4348 17.8274 5.38965 17.7137 5.38965" stroke="white" stroke-width="2" stroke-linecap="round" stroke-linejoin="round"/>
<path d="M1.47083 5.88168C1.47083 4.71185 1.93554 3.58993 2.76274 2.76274C3.58994 1.93554 4.71186 1.47083 5.88169 1.47083H17.6451C18.2244 1.47083 18.7979 1.58492 19.3331 1.80658C19.8682 2.02825 20.3545 2.35315 20.7641 2.76274C21.1736 3.17232 21.4986 3.65857 21.7202 4.19372C21.9419 4.72887 22.056 5.30244 22.056 5.88168V17.6451C22.056 18.8149 21.5913 19.9369 20.7641 20.7641C19.9369 21.5913 18.8149 22.056 17.6451 22.056H5.87997C4.71014 22.056 3.58822 21.5913 2.76103 20.7641C1.93383 19.9369 1.46912 18.8149 1.46912 17.6451V5.87997L1.47083 5.88168Z" stroke="white" stroke-width="2" stroke-linecap="round" stroke-linejoin="round"/>
<path d="M7.39197 11.7634C7.39197 12.3375 7.50504 12.9059 7.72472 13.4363C7.94441 13.9666 8.2664 14.4485 8.67233 14.8545C9.07825 15.2604 9.56016 15.5824 10.0905 15.8021C10.6209 16.0218 11.1893 16.1348 11.7634 16.1348C12.3375 16.1348 12.9059 16.0218 13.4363 15.8021C13.9666 15.5824 14.4485 15.2604 14.8545 14.8545C15.2604 14.4485 15.5824 13.9666 15.8021 13.4363C16.0218 12.9059 16.1348 12.3375 16.1348 11.7634C16.1348 10.604 15.6743 9.49213 14.8545 8.67233C14.0347 7.85253 12.9228 7.39197 11.7634 7.39197C10.604 7.39197 9.49213 7.85253 8.67233 8.67233C7.85253 9.49213 7.39197 10.604 7.39197 11.7634Z" stroke="white" stroke-width="2" stroke-linecap="round" stroke-linejoin="round"/>
</g>
<defs>
<clipPath id="clip0_66_5">
<rect width="24" height="24" fill="white"/>
</clipPath>
</defs>
</svg>
