<svg width="24" height="24" viewBox="0 0 24 24" fill="none" xmlns="http://www.w3.org/2000/svg">
<path d="M14.604 2.76001C13.0633 2.58464 11.5077 2.58464 9.967 2.76001L8.37199 2.94201C8.25755 2.95516 8.15117 3.00742 8.07081 3.08996C7.99046 3.1725 7.94107 3.28026 7.931 3.39501L7.80799 4.77701C7.60184 7.10011 7.60184 9.43691 7.80799 11.76L7.931 13.142C7.94199 13.2665 7.99922 13.3824 8.09139 13.4668C8.18357 13.5512 8.30401 13.598 8.42899 13.598H10.5V21C10.5002 21.1035 10.5325 21.2043 10.5924 21.2887C10.6523 21.3731 10.7369 21.4367 10.8346 21.471C10.9322 21.5052 11.0381 21.5083 11.1376 21.4798C11.237 21.4514 11.3252 21.3927 11.39 21.312L11.781 20.822C14.1106 17.9057 15.9657 14.6403 17.278 11.146L17.468 10.639C17.4964 10.5634 17.5061 10.4819 17.4962 10.4017C17.4863 10.3215 17.4571 10.2449 17.4111 10.1784C17.3651 10.1119 17.3036 10.0576 17.232 10.0201C17.1605 9.98261 17.0808 9.96301 17 9.96301H14.287L16.612 3.61101C16.6381 3.53993 16.6477 3.46386 16.64 3.38853C16.6324 3.3132 16.6078 3.24059 16.568 3.17616C16.5283 3.11174 16.4744 3.05719 16.4105 3.01663C16.3465 2.97607 16.2742 2.95055 16.199 2.94201L14.604 2.76001Z" fill="#211460"/>
</svg>
