<svg width="24" height="24" viewBox="0 0 24 24" fill="none" xmlns="http://www.w3.org/2000/svg">
<path d="M11.7102 0.269676C10.9953 -0.0898921 10.1978 -0.0898921 9.48287 0.269676L6.94458 1.54643L15.9356 6.07478L19.4594 4.30206C19.2947 4.13035 19.1096 3.99193 18.911 3.89176L11.7102 0.269676ZM14.3214 6.88693L5.32996 2.35857L2.2821 3.89115C2.07961 3.99373 1.89536 4.13251 1.73366 4.30206L10.5965 8.76042L14.3214 6.88693ZM1 6.27209C1 6.03918 1.02495 5.81111 1.07245 5.59389L9.99676 10.083V23.5933C9.82106 23.5492 9.64902 23.4845 9.48287 23.4002L2.2821 19.7775C1.9038 19.5873 1.57949 19.2589 1.35097 18.8348C1.12245 18.4106 1.00021 17.9101 1 17.3978V6.27209ZM11.7102 23.3996C11.5426 23.4841 11.3713 23.5486 11.1963 23.5933V10.083L20.1206 5.59389C20.1681 5.81171 20.1931 6.03979 20.1931 6.27269V17.3978C20.193 17.9102 20.0708 18.4109 19.8423 18.8351C19.6137 19.2594 19.2894 19.5879 18.911 19.7781L11.7102 23.3996Z" fill="#211460"/>
<path d="M22.0136 17.4134C21.8153 17.6578 21.5482 17.8365 21.2449 17.9437L16.4947 21.2205C15.9859 21.5732 15.4979 22.0635 15 22C13.6532 19.3002 12.5101 16.2301 11.9756 12.7084C14.1391 14.4158 17.2435 15.2808 19.8224 15.7172C19.6555 16.3524 19.4252 16.9979 19.1482 17.6186C19.8049 18.0787 20.6054 18.1698 21.2449 17.9437L22.0136 17.4134Z" fill="white"/>
<path d="M20.8025 18.0137C20.869 17.9317 20.9373 17.8208 21.0035 17.686C21.1496 17.3516 21.2152 17.1497 21.3124 16.7719C21.7025 15.0516 21.5125 12.1007 18.6673 9.89138L19.8711 10.2301C24.2284 13.1591 22.6316 19.0512 21.4223 20.5207C20.4254 21.7324 18.2852 22.0857 16.7968 20.7769C16.4275 21.0329 16.0507 21.1627 15.6894 21.1166C14.7119 19.1571 13.9048 17.1549 13.5169 14.5988C15.0872 15.8381 17.3403 16.4658 19.2121 16.7826C19.0909 17.2436 18.9238 17.7121 18.7227 18.1626C19.4255 18.655 20.3551 18.5651 20.8025 18.0137Z" fill="#211460"/>
</svg>
