<svg width="25" height="25" viewBox="0 0 25 25" fill="none" xmlns="http://www.w3.org/2000/svg">
<path d="M10.5 17C8.68333 17 7.146 16.3707 5.888 15.112C4.63 13.8533 4.00067 12.316 4 10.5C3.99933 8.684 4.62867 7.14667 5.888 5.888C7.14733 4.62933 8.68467 4 10.5 4C12.3153 4 13.853 4.62933 15.113 5.888C16.373 7.14667 17.002 8.684 17 10.5C17 11.2333 16.8833 11.925 16.65 12.575C16.4167 13.225 16.1 13.8 15.7 14.3L21.3 19.9C21.4833 20.0833 21.575 20.3167 21.575 20.6C21.575 20.8833 21.4833 21.1167 21.3 21.3C21.1167 21.4833 20.8833 21.575 20.6 21.575C20.3167 21.575 20.0833 21.4833 19.9 21.3L14.3 15.7C13.8 16.1 13.225 16.4167 12.575 16.65C11.925 16.8833 11.2333 17 10.5 17ZM10.5 15C11.75 15 12.8127 14.5627 13.688 13.688C14.5633 12.8133 15.0007 11.7507 15 10.5C14.9993 9.24933 14.562 8.187 13.688 7.313C12.814 6.439 11.7513 6.00133 10.5 6C9.24867 5.99867 8.18633 6.43633 7.313 7.313C6.43967 8.18967 6.002 9.252 6 10.5C5.998 11.748 6.43567 12.8107 7.313 13.688C8.19033 14.5653 9.25267 15.0027 10.5 15Z" fill="white"/>
</svg>
