<svg width="24" height="24" viewBox="0 0 24 24" fill="none" xmlns="http://www.w3.org/2000/svg">
<path fill-rule="evenodd" clip-rule="evenodd" d="M11.606 2.08C11.7305 2.02663 11.8645 1.99911 12 1.99911C12.1355 1.99911 12.2695 2.02663 12.394 2.08L18.788 4.821C19.1478 4.97526 19.4545 5.23174 19.6699 5.55864C19.8854 5.88554 20.0002 6.26849 20 6.66V13.52C19.9999 14.7539 19.6736 15.9659 19.0542 17.0331C18.4348 18.1003 17.5443 18.9848 16.473 19.597L12.496 21.869C12.3449 21.9553 12.174 22.0007 12 22.0007C11.826 22.0007 11.6551 21.9553 11.504 21.869L7.527 19.597C6.45537 18.9846 5.5647 18.0998 4.94529 17.0322C4.32589 15.9646 3.99977 14.7523 4 13.518V6.66C4.00004 6.26866 4.1149 5.88593 4.33033 5.55922C4.54576 5.23252 4.85231 4.97619 5.212 4.822L11.606 2.08ZM15.707 10.707C15.8892 10.5184 15.99 10.2658 15.9877 10.0036C15.9854 9.74141 15.8802 9.49059 15.6948 9.30519C15.5094 9.11978 15.2586 9.01461 14.9964 9.01233C14.7342 9.01005 14.4816 9.11085 14.293 9.293L11 12.586L9.707 11.293C9.5184 11.1108 9.2658 11.0101 9.0036 11.0123C8.7414 11.0146 8.49059 11.1198 8.30518 11.3052C8.11977 11.4906 8.0146 11.7414 8.01233 12.0036C8.01005 12.2658 8.11084 12.5184 8.293 12.707L10.293 14.707C10.4805 14.8945 10.7348 14.9998 11 14.9998C11.2652 14.9998 11.5195 14.8945 11.707 14.707L15.707 10.707Z" fill="#211460"/>
</svg>
