<svg width="24" height="24" viewBox="0 0 24 24" fill="none" xmlns="http://www.w3.org/2000/svg">
<path d="M3.898 8.925C3.348 9.219 3 9.79 3 10.418V19.803C3 20.753 3.78 21.5 4.714 21.5H17.235C17.814 21.5 18.259 21.096 18.539 20.775C18.856 20.413 19.157 19.928 19.433 19.392C19.99 18.312 20.513 16.898 20.892 15.499C21.268 14.107 21.52 12.667 21.499 11.543C21.489 10.991 21.412 10.433 21.187 9.987C20.94 9.494 20.484 9.105 19.823 9.105H14.573C14.789 8.145 15.083 6.608 14.977 5.237C14.918 4.479 14.731 3.676 14.254 3.048C13.745 2.38 12.977 2 11.972 2C11.39 2 10.846 2.31 10.557 2.822M10.557 2.822L9.277 5.088C8.765 5.994 7.977 6.668 7.019 7.264C6.381 7.661 5.725 7.991 5.046 8.334C4.66081 8.52605 4.27811 8.72307 3.898 8.925" fill="#211460"/>
</svg>
